<svg width="19" height="19" viewBox="0 0 19 19" fill="none" xmlns="http://www.w3.org/2000/svg">
<path d="M6.33331 12.6667L13.2367 12.0914C15.3968 11.9114 15.8817 11.4396 16.1211 9.28538L16.625 4.75" stroke="white" stroke-opacity="0.9" stroke-width="1.5" stroke-linecap="round"/>
<path d="M4.75 4.75H5.14583M17.4167 4.75H15.4375" stroke="white" stroke-opacity="0.9" stroke-width="1.5" stroke-linecap="round"/>
<path d="M7.52081 4.75H13.0625M10.2916 7.52083V1.97917" stroke="white" stroke-opacity="0.9" stroke-width="1.5" stroke-linecap="round"/>
<path d="M4.75002 17.4167C5.62447 17.4167 6.33335 16.7078 6.33335 15.8333C6.33335 14.9589 5.62447 14.25 4.75002 14.25C3.87557 14.25 3.16669 14.9589 3.16669 15.8333C3.16669 16.7078 3.87557 17.4167 4.75002 17.4167Z" stroke="white" stroke-opacity="0.9" stroke-width="1.5"/>
<path d="M13.4583 17.4167C14.3328 17.4167 15.0417 16.7078 15.0417 15.8333C15.0417 14.9589 14.3328 14.25 13.4583 14.25C12.5839 14.25 11.875 14.9589 11.875 15.8333C11.875 16.7078 12.5839 17.4167 13.4583 17.4167Z" stroke="white" stroke-opacity="0.9" stroke-width="1.5"/>
<path d="M6.33331 15.8333H11.875" stroke="white" stroke-opacity="0.9" stroke-width="1.5" stroke-linecap="round"/>
<path d="M1.58331 1.58333H2.34806C3.09593 1.58333 3.74784 2.0778 3.92923 2.78265L6.28464 11.9356C6.40367 12.3981 6.3018 12.8881 6.00734 13.2696L5.25042 14.25" stroke="white" stroke-opacity="0.9" stroke-width="1.5" stroke-linecap="round"/>
</svg>
